<svg width="31" height="31" viewBox="0 0 31 31" fill="none" xmlns="http://www.w3.org/2000/svg">
<path d="M22.9271 5.28294L19.6592 7.78877L20.8346 11.7413L17.4375 9.40335L14.0404 11.7413L15.2158 7.78877L11.9479 5.28294L16.0683 5.16669L17.4375 1.29169L18.8067 5.16669L22.9271 5.28294ZM27.4479 14.2084L25.3296 15.8229L26.0917 18.3804L23.8958 16.8692L21.7 18.3804L22.4621 15.8229L20.3437 14.2084L23.0046 14.1438L23.8958 11.625L24.7871 14.1438L27.4479 14.2084ZM24.5029 20.6021C25.575 20.4988 26.7246 22.0229 26.04 22.9917C25.6267 23.5729 25.1875 24.1154 24.645 24.6321C19.5946 29.7084 11.4183 29.7084 6.38083 24.6321C1.33041 19.5946 1.33041 11.4054 6.38083 6.36794C6.8975 5.85127 7.44 5.38627 8.02125 4.97294C8.99 4.28835 10.5142 5.43794 10.4108 6.51002C10.0621 10.2042 11.3021 14.0404 14.1437 16.8692C16.9725 19.7109 20.7958 20.9509 24.5029 20.6021ZM22.3846 23.2113C18.7292 23.0046 15.1125 21.4934 12.3096 18.7292C9.50666 15.9004 8.00833 12.2709 7.80166 8.62835C4.17208 12.6842 4.31416 18.91 8.20208 22.8109C12.1029 26.6988 18.3287 26.8409 22.3846 23.2113Z" fill="currentColor"/>
</svg>
