<svg width="27" height="31" viewBox="0 0 27 31" fill="none" xmlns="http://www.w3.org/2000/svg">
<path d="M13.5 8.20829C15.4339 8.20829 17.2885 8.97652 18.656 10.344C20.0235 11.7114 20.7917 13.5661 20.7917 15.5C20.7917 17.4338 20.0235 19.2885 18.656 20.6559C17.2885 22.0234 15.4339 22.7916 13.5 22.7916C11.5661 22.7916 9.71148 22.0234 8.34403 20.6559C6.97658 19.2885 6.20835 17.4338 6.20835 15.5C6.20835 13.5661 6.97658 11.7114 8.34403 10.344C9.71148 8.97652 11.5661 8.20829 13.5 8.20829ZM13.5 11.125C12.3397 11.125 11.2269 11.5859 10.4064 12.4064C9.58595 13.2268 9.12502 14.3396 9.12502 15.5C9.12502 16.6603 9.58595 17.7731 10.4064 18.5936C11.2269 19.414 12.3397 19.875 13.5 19.875C14.6603 19.875 15.7731 19.414 16.5936 18.5936C17.4141 17.7731 17.875 16.6603 17.875 15.5C17.875 14.3396 17.4141 13.2268 16.5936 12.4064C15.7731 11.5859 14.6603 11.125 13.5 11.125ZM13.5 0.916626L16.9854 5.90413C15.9063 5.51038 14.725 5.29163 13.5 5.29163C12.275 5.29163 11.0938 5.51038 10.0146 5.90413L13.5 0.916626ZM0.87085 8.20829L6.93752 7.69788C6.06252 8.44163 5.27502 9.34579 4.66252 10.3958C4.02085 11.475 3.65627 12.5833 3.4521 13.7354L0.87085 8.20829ZM0.900016 22.7916L3.46668 17.2937C3.67085 18.4166 4.0646 19.5541 4.6771 20.6041C5.2896 21.6833 6.0771 22.5875 6.93752 23.3312L0.900016 22.7916ZM26.1146 8.20829L23.5333 13.7354C23.3292 12.5833 22.9354 11.4604 22.3229 10.3958C21.7104 9.34579 20.9375 8.42704 20.0625 7.68329L26.1146 8.20829ZM26.1 22.7916L20.0625 23.3166C20.9229 22.5729 21.6959 21.6541 22.3083 20.6041C22.9208 19.5395 23.3146 18.4166 23.5188 17.2645L26.1 22.7916ZM13.5 30.0833L9.98543 25.0666C11.0646 25.4604 12.2458 25.7083 13.5 25.7083C14.6958 25.7083 15.8771 25.4604 16.9563 25.0666L13.5 30.0833Z" fill="currentColor"/>
</svg>
